<svg xmlns="http://www.w3.org/2000/svg" viewBox="0 0 64 64">
<style type="text/css">
.st0{fill:none;stroke:#333;stroke-width:2;stroke-linecap:round;stroke-linejoin:round;}
.st1{fill:#333;stroke:#333;}
.st2{fill:#333;stroke:#333;}
.st3{fill:#333;stroke:#333;}
</style>
<path fill="#fff" d="M52,60H12c-4.4,0-8-3.6-8-8V12c0-4.4,3.6-8,8-8h40c4.4,0,8,3.6,8,8v40C60,56.4,56.4,60,52,60z"/>
<polyline class="st0" points="8,8 8,56 56,56 "/>

<path class="st1" d="M12,56.5c-0.3,0-0.5-0.2-0.5-0.5V36c0-0.3,0.2-0.5,0.5-0.5h4c0.3,0,0.5,0.2,0.5,0.5v20c0,0.3-0.2,0.5-0.5,0.5H12z"/>
<path class="st2" d="M16,56.5c-0.3,0-0.5-0.2-0.5-0.5V24c0-0.3,0.2-0.5,0.5-0.5h4c0.3,0,0.5,0.2,0.5,0.5v32c0,0.3-0.2,0.5-0.5,0.5H16z"/>
<path class="st3" d="M20,56.5c-0.3,0-0.5-0.2-0.5-0.5V44c0-0.3,0.2-0.5,0.5-0.5h4c0.3,0,0.5,0.2,0.5,0.5v12c0,0.3-0.2,0.5-0.5,0.5H20z"/>

<path class="st1" d="M28,56.5c-0.3,0-0.5-0.2-0.5-0.5V36c0-0.3,0.2-0.5,0.5-0.5h4c0.3,0,0.5,0.2,0.5,0.5v20c0,0.3-0.2,0.5-0.5,0.5H28z"/>
<path class="st2" d="M32,56.5c-0.3,0-0.5-0.2-0.5-0.5v-8c0-0.3,0.2-0.5,0.5-0.5h4c0.3,0,0.5,0.2,0.5,0.5v8c0,0.3-0.2,0.5-0.5,0.5H32z"/>
<path class="st3" d="M36,56.5c-0.3,0-0.5-0.2-0.5-0.5V28c0-0.3,0.2-0.5,0.5-0.5h4c0.3,0,0.5,0.2,0.5,0.5v28c0,0.3-0.2,0.5-0.5,0.5H36z"/>

<path class="st1" d="M44,56.5c-0.3,0-0.5-0.2-0.5-0.5V28c0-0.3,0.2-0.5,0.5-0.5h4c0.3,0,0.5,0.2,0.5,0.5v28c0,0.3-0.2,0.5-0.5,0.5H44z"/>
<path class="st2" d="M48,56.5c-0.3,0-0.5-0.2-0.5-0.5v-8c0-0.3,0.2-0.5,0.5-0.5h4c0.3,0,0.5,0.2,0.5,0.5v8c0,0.3-0.2,0.5-0.5,0.5H48z"/>
<path class="st3" d="M52,56.5c-0.3,0-0.5-0.2-0.5-0.5v-8c0-0.3,0.2-0.5,0.5-0.5h4c0.3,0,0.5,0.2,0.5,0.5v8c0,0.3-0.2,0.5-0.5,0.5H52z"/>
</svg>